<svg width="7" height="12" viewBox="0 0 7 12" fill="none" xmlns="http://www.w3.org/2000/svg">
<path d="M0.841336 2.17621C0.686713 2.02005 0.599975 1.80917 0.599975 1.58941C0.599975 1.36965 0.686713 1.15877 0.841336 1.00261C0.917264 0.925513 1.00777 0.864284 1.10758 0.822493C1.2074 0.7807 1.31453 0.759178 1.42274 0.759178C1.53095 0.759178 1.63807 0.7807 1.73789 0.822493C1.8377 0.864284 1.92821 0.925513 2.00414 1.00261L6.60014 5.69221C6.75454 5.84873 6.84112 6.05975 6.84112 6.27961C6.84112 6.49948 6.75454 6.7105 6.60014 6.86701L2.00414 11.5566C1.92821 11.6337 1.8377 11.6949 1.73789 11.7367C1.63808 11.7785 1.53095 11.8 1.42274 11.8C1.31453 11.8 1.2074 11.7785 1.10758 11.7367C1.00777 11.6949 0.917264 11.6337 0.841336 11.5566C0.686714 11.4005 0.599976 11.1896 0.599976 10.9698C0.599976 10.7501 0.686713 10.5392 0.841336 10.383L4.61054 6.27781L0.841336 2.17621Z" fill="black"/>
</svg>
