<svg width="7" height="12" viewBox="0 0 7 12" fill="none" xmlns="http://www.w3.org/2000/svg">
<path d="M6.15863 2.17621C6.31326 2.02005 6.39999 1.80917 6.39999 1.58941C6.39999 1.36965 6.31326 1.15877 6.15863 1.00261C6.08271 0.925513 5.9922 0.864284 5.89239 0.822493C5.79257 0.7807 5.68544 0.759178 5.57723 0.759178C5.46902 0.759178 5.36189 0.7807 5.26208 0.822493C5.16227 0.864284 5.07176 0.925513 4.99583 1.00261L0.399833 5.69221C0.245425 5.84873 0.158854 6.05975 0.158854 6.27961C0.158854 6.49948 0.245425 6.7105 0.399833 6.86701L4.99583 11.5566C5.07176 11.6337 5.16227 11.6949 5.26208 11.7367C5.36189 11.7785 5.46902 11.8 5.57723 11.8C5.68544 11.8 5.79257 11.7785 5.89239 11.7367C5.9922 11.6949 6.08271 11.6337 6.15863 11.5566C6.31326 11.4005 6.39999 11.1896 6.39999 10.9698C6.39999 10.7501 6.31326 10.5392 6.15863 10.383L2.38943 6.27781L6.15863 2.17621Z" fill="black"/>
</svg>
